<?xml version="1.0" encoding="UTF-8" standalone="no"?>
<!-- Created with Inkscape (http://www.inkscape.org/) -->

<svg
   width="132.29167mm"
   height="132.29167mm"
   viewBox="0 0 132.29167 132.29167"
   version="1.1"
   id="svg856"
   inkscape:version="1.3 (1:1.3+202307231459+0e150ed6c4)"
   sodipodi:docname="feis icon.svg"
   inkscape:export-filename="feis icon.png"
   inkscape:export-xdpi="24"
   inkscape:export-ydpi="24"
   xmlns:inkscape="http://www.inkscape.org/namespaces/inkscape"
   xmlns:sodipodi="http://sodipodi.sourceforge.net/DTD/sodipodi-0.dtd"
   xmlns:xlink="http://www.w3.org/1999/xlink"
   xmlns="http://www.w3.org/2000/svg"
   xmlns:svg="http://www.w3.org/2000/svg">
  <sodipodi:namedview
     id="namedview858"
     pagecolor="#ffffff"
     bordercolor="#cccccc"
     borderopacity="1"
     inkscape:pageshadow="0"
     inkscape:pageopacity="0"
     inkscape:pagecheckerboard="0"
     inkscape:document-units="mm"
     showgrid="true"
     inkscape:zoom="1.4895062"
     inkscape:cx="409.19603"
     inkscape:cy="239.00539"
     inkscape:window-width="1920"
     inkscape:window-height="1012"
     inkscape:window-x="0"
     inkscape:window-y="0"
     inkscape:window-maximized="1"
     inkscape:current-layer="layer1"
     fit-margin-top="0"
     fit-margin-left="0"
     fit-margin-right="0"
     fit-margin-bottom="0"
     inkscape:showpageshadow="2"
     inkscape:deskcolor="#d1d1d1">
    <inkscape:grid
       type="xygrid"
       id="grid969"
       spacingx="2.6458333"
       spacingy="2.6458333"
       empspacing="10"
       originx="-13.229166"
       originy="-13.229166"
       units="mm"
       visible="true" />
  </sodipodi:namedview>
  <defs
     id="defs853">
    <linearGradient
       id="linearGradient8">
      <stop
         style="stop-color:#c15c5c;stop-opacity:1;"
         offset="0"
         id="stop7" />
    </linearGradient>
    <linearGradient
       id="swatch6">
      <stop
         style="stop-color:#000000;stop-opacity:1;"
         offset="0"
         id="stop6" />
    </linearGradient>
    <linearGradient
       id="swatch4"
       inkscape:swatch="solid">
      <stop
         style="stop-color:#ffffff;stop-opacity:1;"
         offset="0"
         id="stop4" />
    </linearGradient>
    <linearGradient
       id="swatch1">
      <stop
         style="stop-color:#ffffff;stop-opacity:1;"
         offset="0"
         id="stop1" />
    </linearGradient>
    <linearGradient
       id="linearGradient1271">
      <stop
         style="stop-color:#ffffff;stop-opacity:1;"
         offset="0"
         id="stop1269" />
    </linearGradient>
  </defs>
  <g
     inkscape:label="Calque 1"
     id="layer1"
     style="mix-blend-mode:hue"
     transform="translate(-13.229166,-13.229166)">
    <path
       id="rect1"
       style="fill:#36abc2;stroke-width:2.11667;stroke-linejoin:bevel;paint-order:stroke fill markers"
       d="M 26.458332,13.229166 H 132.29167 c 7.32896,0 13.22917,5.900208 13.22917,13.229166 V 132.29167 c 0,7.32896 -5.90021,13.22917 -13.22917,13.22917 H 26.458332 c -7.328958,0 -13.229166,-5.90021 -13.229166,-13.22917 V 26.458332 c 0,-7.328958 5.900208,-13.229166 13.229166,-13.229166 z" />
    <path
       id="use1204"
       style="color:#000000;mix-blend-mode:multiply;fill:#00cdde;fill-opacity:1;stroke-linecap:round;stroke-linejoin:round;-inkscape-stroke:none"
       d="m 110.06607,29.64219 a 1.050105,1.050105 0 0 0 -1.04883,1.048829 v 21.167968 a 1.050105,1.050105 0 0 0 1.04883,1.048828 h 21.16796 a 1.050105,1.050105 0 0 0 1.04883,-1.048828 V 30.691019 a 1.050105,1.050105 0 0 0 -1.04883,-1.048829 z m 1.05078,2.09961 h 19.0664 v 19.066406 h -19.0664 z m -1.05078,24.357422 a 1.050105,1.050105 0 0 0 -1.04883,1.050781 v 21.166016 a 1.050105,1.050105 0 0 0 1.04883,1.050781 h 21.16796 a 1.050105,1.050105 0 0 0 1.04883,-1.050781 V 57.150003 a 1.050105,1.050105 0 0 0 -1.04883,-1.050781 z m 1.05078,2.101562 h 19.0664 V 77.26719 h -19.0664 z m -1.05078,24.357422 a 1.050105,1.050105 0 0 0 -1.04883,1.050781 v 21.166023 a 1.050105,1.050105 0 0 0 1.04883,1.05078 h 21.16796 a 1.050105,1.050105 0 0 0 1.04883,-1.05078 V 83.608987 a 1.050105,1.050105 0 0 0 -1.04883,-1.050781 z m 1.05078,2.099609 h 19.0664 v 19.066415 h -19.0664 z m -1.05078,24.359385 a 1.050105,1.050105 0 0 0 -1.04883,1.04883 v 21.16796 a 1.050105,1.050105 0 0 0 1.04883,1.04883 h 21.16796 a 1.050105,1.050105 0 0 0 1.04883,-1.04883 v -21.16796 a 1.050105,1.050105 0 0 0 -1.04883,-1.04883 z m 1.05078,2.09961 h 19.0664 v 19.0664 h -19.0664 z M 83.609024,29.64219 a 1.050105,1.050105 0 0 0 -1.050781,1.048829 v 21.167968 a 1.050105,1.050105 0 0 0 1.050781,1.048828 h 21.166026 a 1.050105,1.050105 0 0 0 1.05078,-1.048828 V 30.691019 a 1.050105,1.050105 0 0 0 -1.05078,-1.048829 z m 1.048828,2.09961 H 103.72427 V 50.808206 H 84.657852 Z m -1.048828,24.357422 a 1.050105,1.050105 0 0 0 -1.050781,1.050781 v 21.166016 a 1.050105,1.050105 0 0 0 1.050781,1.050781 h 21.166026 a 1.050105,1.050105 0 0 0 1.05078,-1.050781 V 57.150003 a 1.050105,1.050105 0 0 0 -1.05078,-1.050781 z m 1.048828,2.101562 H 103.72427 V 77.26719 H 84.657852 Z m -1.048828,24.357422 a 1.050105,1.050105 0 0 0 -1.050781,1.050781 v 21.166023 a 1.050105,1.050105 0 0 0 1.050781,1.05078 h 21.166026 a 1.050105,1.050105 0 0 0 1.05078,-1.05078 V 83.608987 a 1.050105,1.050105 0 0 0 -1.05078,-1.050781 z m 1.048828,2.099609 H 103.72427 V 103.72423 H 84.657852 Z M 83.609024,109.0172 a 1.050105,1.050105 0 0 0 -1.050781,1.04883 v 21.16796 a 1.050105,1.050105 0 0 0 1.050781,1.04883 h 21.166026 a 1.050105,1.050105 0 0 0 1.05078,-1.04883 v -21.16796 a 1.050105,1.050105 0 0 0 -1.05078,-1.04883 z m 1.048828,2.09961 h 19.066418 v 19.0664 H 84.657852 Z M 57.15004,109.0172 a 1.050105,1.050105 0 0 0 -1.050781,1.04883 v 21.16796 a 1.050105,1.050105 0 0 0 1.050781,1.04883 h 21.166016 a 1.050105,1.050105 0 0 0 1.050781,-1.04883 v -21.16796 a 1.050105,1.050105 0 0 0 -1.050781,-1.04883 z m 1.050781,2.09961 h 19.066406 v 19.0664 H 58.200821 Z M 57.15004,82.558206 a 1.050105,1.050105 0 0 0 -1.050781,1.050781 v 21.166023 a 1.050105,1.050105 0 0 0 1.050781,1.05078 h 21.166016 a 1.050105,1.050105 0 0 0 1.050781,-1.05078 V 83.608987 a 1.050105,1.050105 0 0 0 -1.050781,-1.050781 z m 1.050781,2.099609 H 77.267227 V 103.72423 H 58.200821 Z M 57.15004,56.099222 a 1.050105,1.050105 0 0 0 -1.050781,1.050781 V 78.316019 A 1.050105,1.050105 0 0 0 57.15004,79.3668 h 21.166016 a 1.050105,1.050105 0 0 0 1.050781,-1.050781 V 57.150003 a 1.050105,1.050105 0 0 0 -1.050781,-1.050781 z m 1.050781,2.101562 H 77.267227 V 77.26719 H 58.200821 Z M 57.15004,29.64219 a 1.050105,1.050105 0 0 0 -1.050781,1.048829 v 21.167968 a 1.050105,1.050105 0 0 0 1.050781,1.048828 h 21.166016 a 1.050105,1.050105 0 0 0 1.050781,-1.048828 V 30.691019 A 1.050105,1.050105 0 0 0 78.316056,29.64219 Z m 1.050781,2.09961 H 77.267227 V 50.808206 H 58.200821 Z m -27.509632,77.27533 a 1.050105,1.050105 0 0 0 -1.049032,1.04903 v 21.1677 a 1.050105,1.050105 0 0 0 0.0021,0.0191 1.050105,1.050105 0 0 0 0.01292,0.11265 1.050105,1.050105 0 0 0 0.02325,0.13591 1.050105,1.050105 0 0 0 0.03979,0.11317 1.050105,1.050105 0 0 0 0.05323,0.11679 1.050105,1.050105 0 0 0 0.06563,0.10387 1.050105,1.050105 0 0 0 0.08216,0.1018 1.050105,1.050105 0 0 0 0.08423,0.0842 1.050105,1.050105 0 0 0 0.108004,0.0796 1.050105,1.050105 0 0 0 0.09819,0.062 1.050105,1.050105 0 0 0 0.14211,0.0568 1.050105,1.050105 0 0 0 0.08888,0.0315 1.050105,1.050105 0 0 0 0.248563,0.0315 h 21.167699 a 1.050105,1.050105 0 0 0 0.221176,-0.0248 1.050105,1.050105 0 0 0 0.01707,-0.003 1.050105,1.050105 0 0 0 0.209291,-0.0739 1.050105,1.050105 0 0 0 0.01085,-0.005 1.050105,1.050105 0 0 0 0.1881,-0.11834 1.050105,1.050105 0 0 0 0.01188,-0.009 1.050105,1.050105 0 0 0 0.157096,-0.1571 1.050105,1.050105 0 0 0 0.0072,-0.009 1.050105,1.050105 0 0 0 0.120923,-0.19276 1.050105,1.050105 0 0 0 0.0011,-0.002 1.050105,1.050105 0 0 0 5.3e-4,-0.002 1.050105,1.050105 0 0 0 0.07648,-0.21653 1.050105,1.050105 0 0 0 0.0016,-0.007 1.050105,1.050105 0 0 0 0.02585,-0.23668 v -21.15995 a 1.050105,1.050105 0 0 0 -1.049033,-1.04903 z m 1.050582,2.09961 h 7.834147 l -7.834147,15.66674 z m 11.23239,0 h 7.834146 v 15.66674 z m -1.699122,1.29863 8.884729,17.76791 H 32.39031 Z m -10.58385,-29.8571 a 1.050105,1.050105 0 0 0 -1.049032,1.050581 v 21.166159 a 1.050105,1.050105 0 0 0 1.049032,1.05058 h 21.167699 a 1.050105,1.050105 0 0 0 1.049033,-1.05058 V 83.608851 A 1.050105,1.050105 0 0 0 51.858888,82.55827 Z m 1.050582,2.099614 h 8.482686 v 19.066546 h -8.482686 z m 10.583849,0 h 8.482687 V 103.72443 H 42.32562 Z M 30.691189,56.099421 a 1.050105,1.050105 0 0 0 -1.049032,1.050581 v 21.16615 a 1.050105,1.050105 0 0 0 1.049032,1.050581 h 21.167699 a 1.050105,1.050105 0 0 0 1.049033,-1.050581 v -21.16615 a 1.050105,1.050105 0 0 0 -1.049033,-1.050581 z m 1.050582,2.101162 h 8.482686 v 19.066536 h -8.482686 z m 10.583849,0 h 8.482687 V 77.267119 H 42.32562 Z M 30.691056,29.64219 c -0.578961,7.03e-4 -1.048126,0.469868 -1.048829,1.048829 v 21.167968 c 7.04e-4,0.57896 0.469869,1.048125 1.048829,1.048828 h 21.167968 c 0.57896,-7.04e-4 1.048124,-0.469868 1.048828,-1.048828 V 30.691019 c -7.03e-4,-0.57896 -0.469868,-1.048125 -1.048828,-1.048829 z"
       inkscape:label="use1204" />
    <g
       id="g8167"
       style="display:inline;mix-blend-mode:normal">
      <path
         id="path861"
         style="display:inline;fill:#ffffff;fill-opacity:1;stroke:#ffffff;stroke-width:2.1;stroke-linecap:round;stroke-linejoin:round;stroke-miterlimit:4;stroke-dasharray:none;stroke-opacity:1"
         d="m 29.104166,29.104166 v 21.166667 h 21.16667 V 29.104166 Z"
         inkscape:label="black square" />
      <path
         id="path859"
         style="display:inline;fill:none;stroke:#ffffff;stroke-width:2.1;stroke-linecap:round;stroke-linejoin:round;stroke-miterlimit:4;stroke-dasharray:none;stroke-opacity:1"
         d="M 29.10417,76.729164 H 50.270836 V 55.562498 H 29.10417 Z"
         inkscape:label="white square" />
      <g
         id="g869"
         transform="matrix(0,1,1,0,0,-79.375008)"
         inkscape:label="long note tail"
         style="display:inline;stroke:#ffffff;stroke-opacity:1">
        <path
           style="fill:none;stroke:#ffffff;stroke-width:2.1;stroke-linecap:round;stroke-linejoin:round;stroke-miterlimit:4;stroke-dasharray:none;stroke-opacity:1"
           d="M 187.85416,39.6875 209.02083,29.104166 V 50.270833 Z"
           id="path865"
           inkscape:label="tip" />
        <path
           style="fill:none;stroke:#ffffff;stroke-width:2.1;stroke-linecap:butt;stroke-linejoin:miter;stroke-miterlimit:4;stroke-dasharray:none;stroke-opacity:1"
           d="m 134.9375,39.6875 h 21.16667"
           id="path1056"
           inkscape:label="tail"
           sodipodi:nodetypes="cc" />
        <use
           x="0"
           y="0"
           xlink:href="#path1056"
           id="use931"
           width="100%"
           height="100%"
           transform="translate(26.458337)"
           style="stroke:#ffffff;stroke-opacity:1" />
      </g>
      <use
         x="0"
         y="0"
         xlink:href="#path859"
         id="use14016"
         width="100%"
         height="100%"
         transform="translate(26.458329,-26.458332)"
         style="fill:none;stroke:none;stroke-width:1;stroke-miterlimit:4;stroke-dasharray:none" />
      <use
         x="0"
         y="0"
         xlink:href="#use14016"
         id="use14018"
         width="100%"
         height="100%"
         transform="translate(0,26.458333)"
         style="fill:none;stroke:none;stroke-width:1;stroke-miterlimit:4;stroke-dasharray:none" />
      <use
         x="0"
         y="0"
         xlink:href="#use14018"
         id="use14020"
         width="100%"
         height="100%"
         transform="translate(0,26.458333)"
         style="fill:none;stroke:none;stroke-width:1;stroke-miterlimit:4;stroke-dasharray:none" />
      <use
         x="0"
         y="0"
         xlink:href="#use14020"
         id="use14022"
         transform="translate(0,26.458333)"
         width="100%"
         height="100%"
         style="fill:none;stroke:none;stroke-width:1;stroke-miterlimit:4;stroke-dasharray:none" />
      <use
         x="0"
         y="0"
         xlink:href="#use14022"
         id="use14024"
         width="100%"
         height="100%"
         transform="translate(26.458333)"
         style="fill:none;stroke:none;stroke-width:1;stroke-miterlimit:4;stroke-dasharray:none" />
      <use
         x="0"
         y="0"
         xlink:href="#use14024"
         id="use14026"
         width="100%"
         height="100%"
         transform="translate(0,-26.458333)"
         style="fill:none;stroke:none;stroke-width:1;stroke-miterlimit:4;stroke-dasharray:none" />
      <use
         x="0"
         y="0"
         xlink:href="#use14026"
         id="use14028"
         width="100%"
         height="100%"
         transform="translate(0,-26.458333)"
         style="fill:none;stroke:none;stroke-width:1;stroke-miterlimit:4;stroke-dasharray:none" />
      <use
         x="0"
         y="0"
         xlink:href="#use14028"
         id="use14030"
         width="100%"
         height="100%"
         transform="translate(0,-26.458333)"
         style="fill:none;stroke:none;stroke-width:1;stroke-miterlimit:4;stroke-dasharray:none" />
      <use
         x="0"
         y="0"
         xlink:href="#use14024"
         id="use14032"
         width="100%"
         height="100%"
         transform="translate(26.458333)"
         style="fill:none;stroke:none;stroke-width:1;stroke-miterlimit:4;stroke-dasharray:none" />
      <use
         x="0"
         y="0"
         xlink:href="#use14026"
         id="use14034"
         width="100%"
         height="100%"
         transform="translate(26.458333)"
         style="fill:none;stroke:none;stroke-width:1;stroke-miterlimit:4;stroke-dasharray:none" />
      <use
         x="0"
         y="0"
         xlink:href="#use14028"
         id="use14036"
         width="100%"
         height="100%"
         transform="translate(26.458333)"
         style="fill:none;stroke:none;stroke-width:1;stroke-miterlimit:4;stroke-dasharray:none" />
      <use
         x="0"
         y="0"
         xlink:href="#use14030"
         id="use14038"
         width="100%"
         height="100%"
         transform="translate(26.458333)"
         style="fill:none;stroke:none;stroke-width:1;stroke-miterlimit:4;stroke-dasharray:none" />
      <use
         x="0"
         y="0"
         xlink:href="#path859"
         id="use1661"
         width="100%"
         height="100%"
         transform="translate(-3.2999986e-6,26.458334)"
         style="fill:none;stroke:none" />
      <use
         x="0"
         y="0"
         xlink:href="#use1661"
         id="use1663"
         width="100%"
         height="100%"
         transform="translate(0,26.458333)"
         style="fill:none;stroke:none" />
    </g>
  </g>
</svg>
